<?xml version="1.0" encoding="utf-8"?>
<!-- Generator: Adobe Illustrator 24.1.1, SVG Export Plug-In . SVG Version: 6.00 Build 0)  -->
<svg version="1.1" id="Capa_1" xmlns="http://www.w3.org/2000/svg" xmlns:xlink="http://www.w3.org/1999/xlink" x="0px" y="0px"
	 viewBox="0 0 337.8 337.8" style="enable-background:new 0 0 337.8 337.8;" xml:space="preserve">
<style type="text/css">
	.st0{fill:#FFFFFF;}
</style>
<g>
	<g>
		<path class="st0" d="M239.5,322.3c29.5-13.6,54.7-35.7,72.1-63.1l-140-4.8L239.5,322.3z"/>
	</g>
	<g>
		<path class="st0" d="M168.9,337.8c12.5,0,24.9-1.4,37-4.1l-95.6-102.4l0,96C129,334.3,148.7,337.8,168.9,337.8z"/>
	</g>
	<g>
		<path class="st0" d="M10.4,110.3C3.5,129,0,148.7,0,168.9c0,12.5,1.4,24.9,4.1,37l102.4-95.6L10.4,110.3z"/>
	</g>
	<g>
		<path class="st0" d="M98.3,15.4C68.8,29,43.6,51.1,26.2,78.5l140,4.8L98.3,15.4z"/>
	</g>
	<g>
		<path class="st0" d="M168.9,0c-12.5,0-24.9,1.4-37,4.1l95.6,102.4l0-96C208.7,3.5,189.1,0,168.9,0z"/>
	</g>
	<g>
		<path class="st0" d="M333.7,131.9l-102.4,95.6l96,0c6.9-18.7,10.4-38.4,10.4-58.6C337.8,156.4,336.4,144,333.7,131.9z"/>
	</g>
	<g>
		<path class="st0" d="M78.5,311.6l4.8-140l-67.9,67.9C29,268.9,51.1,294.2,78.5,311.6z"/>
	</g>
	<g>
		<path class="st0" d="M259.2,26.2l-4.8,140l67.9-67.9C308.8,68.8,286.6,43.6,259.2,26.2z"/>
	</g>
</g>
</svg>
